<svg width="15" height="16" viewBox="0 0 15 16" fill="none" xmlns="http://www.w3.org/2000/svg">
<path d="M13.8586 4.72544C13.6489 4.47504 13.2755 4.44212 13.0251 4.65092L11.3841 6.02938L10.6295 4.15967C10.6026 4.08949 10.5619 4.03057 10.5151 3.97859C10.3609 3.63549 10.0932 3.34091 9.72407 3.17023C9.56378 3.09745 9.3983 3.05846 9.23281 3.0394C9.19643 3.02034 9.1635 2.99521 9.12191 2.98222L6.23417 2.17732C6.07215 2.13314 5.90926 2.16173 5.77584 2.2397C5.61728 2.29342 5.48126 2.40865 5.41628 2.57587L4.32893 5.37178C4.2111 5.67589 4.36186 6.01899 4.66683 6.13855C4.97008 6.25638 5.31404 6.10476 5.43274 5.79978L6.35113 3.43882L7.66634 3.80444C7.63429 3.85643 7.59963 3.90495 7.57364 3.9604L5.8876 7.61491C5.86334 7.66863 5.85035 7.72322 5.83302 7.77867L3.78396 11.214L0.354707 12.3611C-0.0334446 12.6514 -0.115754 13.1981 0.171028 13.5862C0.459543 13.9752 1.00798 14.0575 1.39527 13.7708L4.90423 12.5621C5.01166 12.4841 5.08964 12.3819 5.14856 12.2719C5.19274 12.2251 5.24299 12.1878 5.27678 12.1298L6.49842 10.0816L8.66705 11.9296L6.3468 14.5445C6.0271 14.9049 6.05915 15.4603 6.42131 15.7791C6.78261 16.1005 7.33624 16.0667 7.65768 15.7046L10.5532 12.4426C10.6433 12.342 10.697 12.2259 10.7334 12.1047C10.7551 12.0388 10.7551 11.9704 10.7603 11.9019C10.7603 11.8673 10.7733 11.8361 10.7707 11.804C10.7629 11.5649 10.6659 11.3327 10.47 11.1672L8.47471 9.46557C8.61853 9.32867 8.74069 9.16579 8.82907 8.97431L10.1218 6.17494L10.5359 7.27788C10.5532 7.37578 10.5861 7.47196 10.6555 7.55253C10.7178 7.62704 10.7976 7.67643 10.8825 7.71109C10.8911 7.71542 10.9015 7.71628 10.9119 7.71888C10.9656 7.73794 11.0202 7.75614 11.0765 7.75874C11.1432 7.7648 11.2108 7.75614 11.2793 7.73708C11.281 7.73621 11.2819 7.73621 11.2819 7.73621C11.3001 7.73188 11.3183 7.73534 11.3365 7.72755C11.4326 7.69116 11.5063 7.62964 11.5695 7.55773L13.9244 5.55892C14.1748 5.34838 14.0691 4.97583 13.8586 4.72544Z" fill="#F4F4F4"/>
<path d="M10.88 3.30102C11.7916 3.30102 12.5305 2.56206 12.5305 1.65051C12.5305 0.738959 11.7916 0 10.88 0C9.96845 0 9.22949 0.738959 9.22949 1.65051C9.22949 2.56206 9.96845 3.30102 10.88 3.30102Z" fill="#F4F4F4"/>
</svg>
